<mxfile host="app.diagrams.net" agent="Mozilla/5.0 (Windows NT 10.0; Win64; x64) AppleWebKit/537.36 (KHTML, like Gecko) Chrome/132.0.0.0 Safari/537.36" version="26.0.9">
  <diagram id="prtHgNgQTEPvFCAcTncT" name="Page-1">
    <mxGraphModel dx="2074" dy="1098" grid="1" gridSize="10" guides="1" tooltips="1" connect="1" arrows="1" fold="1" page="1" pageScale="1" pageWidth="827" pageHeight="1169" math="0" shadow="0">
      <root>
        <mxCell id="0" />
        <mxCell id="1" parent="0" />
        <mxCell id="oOW6s0dnsx2gBzozzX6u-1" value="Chartcaster" style="swimlane;html=1;childLayout=stackLayout;resizeParent=1;resizeParentMax=0;horizontal=0;startSize=20;horizontalStack=0;" vertex="1" parent="1">
          <mxGeometry x="10" y="10" width="4490" height="600" as="geometry" />
        </mxCell>
        <mxCell id="oOW6s0dnsx2gBzozzX6u-2" value="" style="edgeStyle=orthogonalEdgeStyle;rounded=0;orthogonalLoop=1;jettySize=auto;html=1;" edge="1" parent="oOW6s0dnsx2gBzozzX6u-1" source="oOW6s0dnsx2gBzozzX6u-29">
          <mxGeometry relative="1" as="geometry">
            <mxPoint x="1630" y="243" as="targetPoint" />
          </mxGeometry>
        </mxCell>
        <mxCell id="oOW6s0dnsx2gBzozzX6u-3" value="Yes" style="edgeLabel;html=1;align=center;verticalAlign=middle;resizable=0;points=[];" vertex="1" connectable="0" parent="oOW6s0dnsx2gBzozzX6u-2">
          <mxGeometry x="-0.5135" y="-1" relative="1" as="geometry">
            <mxPoint as="offset" />
          </mxGeometry>
        </mxCell>
        <mxCell id="oOW6s0dnsx2gBzozzX6u-4" value="" style="edgeStyle=orthogonalEdgeStyle;rounded=0;orthogonalLoop=1;jettySize=auto;html=1;" edge="1" parent="oOW6s0dnsx2gBzozzX6u-1" source="oOW6s0dnsx2gBzozzX6u-62" target="oOW6s0dnsx2gBzozzX6u-65">
          <mxGeometry relative="1" as="geometry" />
        </mxCell>
        <mxCell id="oOW6s0dnsx2gBzozzX6u-5" value="Yes" style="edgeLabel;html=1;align=center;verticalAlign=middle;resizable=0;points=[];" vertex="1" connectable="0" parent="oOW6s0dnsx2gBzozzX6u-4">
          <mxGeometry x="-0.4857" y="-1" relative="1" as="geometry">
            <mxPoint as="offset" />
          </mxGeometry>
        </mxCell>
        <mxCell id="oOW6s0dnsx2gBzozzX6u-6" value="Data layer" style="swimlane;html=1;startSize=20;horizontal=0;fillColor=#d5e8d4;strokeColor=#82b366;" vertex="1" parent="oOW6s0dnsx2gBzozzX6u-1">
          <mxGeometry x="20" width="4470" height="200" as="geometry" />
        </mxCell>
        <mxCell id="oOW6s0dnsx2gBzozzX6u-7" value="" style="edgeStyle=orthogonalEdgeStyle;rounded=0;orthogonalLoop=1;jettySize=auto;html=1;" edge="1" parent="oOW6s0dnsx2gBzozzX6u-6" source="oOW6s0dnsx2gBzozzX6u-8" target="oOW6s0dnsx2gBzozzX6u-10">
          <mxGeometry relative="1" as="geometry" />
        </mxCell>
        <mxCell id="oOW6s0dnsx2gBzozzX6u-8" value="Start" style="ellipse;whiteSpace=wrap;html=1;" vertex="1" parent="oOW6s0dnsx2gBzozzX6u-6">
          <mxGeometry x="40" y="50" width="40" height="40" as="geometry" />
        </mxCell>
        <mxCell id="oOW6s0dnsx2gBzozzX6u-9" value="" style="edgeStyle=orthogonalEdgeStyle;rounded=0;orthogonalLoop=1;jettySize=auto;html=1;" edge="1" parent="oOW6s0dnsx2gBzozzX6u-6" source="oOW6s0dnsx2gBzozzX6u-10" target="oOW6s0dnsx2gBzozzX6u-13">
          <mxGeometry relative="1" as="geometry" />
        </mxCell>
        <mxCell id="oOW6s0dnsx2gBzozzX6u-10" value="&lt;div&gt;Enter/Configure Web&lt;/div&gt;Data Source" style="whiteSpace=wrap;html=1;" vertex="1" parent="oOW6s0dnsx2gBzozzX6u-6">
          <mxGeometry x="120" y="40" width="120" height="60" as="geometry" />
        </mxCell>
        <mxCell id="oOW6s0dnsx2gBzozzX6u-11" value="" style="edgeStyle=orthogonalEdgeStyle;rounded=0;orthogonalLoop=1;jettySize=auto;html=1;" edge="1" parent="oOW6s0dnsx2gBzozzX6u-6" source="oOW6s0dnsx2gBzozzX6u-13" target="oOW6s0dnsx2gBzozzX6u-15">
          <mxGeometry relative="1" as="geometry" />
        </mxCell>
        <mxCell id="oOW6s0dnsx2gBzozzX6u-12" value="Pick&lt;div&gt;Script&lt;br&gt;Template&lt;/div&gt;" style="edgeLabel;html=1;align=center;verticalAlign=middle;resizable=0;points=[];" vertex="1" connectable="0" parent="oOW6s0dnsx2gBzozzX6u-11">
          <mxGeometry x="-0.0556" y="1" relative="1" as="geometry">
            <mxPoint as="offset" />
          </mxGeometry>
        </mxCell>
        <mxCell id="oOW6s0dnsx2gBzozzX6u-13" value="Choose Python Scraper" style="rhombus;whiteSpace=wrap;html=1;" vertex="1" parent="oOW6s0dnsx2gBzozzX6u-6">
          <mxGeometry x="340" y="30" width="80" height="80" as="geometry" />
        </mxCell>
        <mxCell id="oOW6s0dnsx2gBzozzX6u-14" value="" style="edgeStyle=orthogonalEdgeStyle;rounded=0;orthogonalLoop=1;jettySize=auto;html=1;" edge="1" parent="oOW6s0dnsx2gBzozzX6u-6" source="oOW6s0dnsx2gBzozzX6u-15" target="oOW6s0dnsx2gBzozzX6u-17">
          <mxGeometry relative="1" as="geometry" />
        </mxCell>
        <mxCell id="oOW6s0dnsx2gBzozzX6u-15" value="&#xa;&lt;span style=&quot;color: rgb(0, 0, 0); font-family: Helvetica; font-size: 12px; font-style: normal; font-variant-ligatures: normal; font-variant-caps: normal; font-weight: 400; letter-spacing: normal; orphans: 2; text-align: center; text-indent: 0px; text-transform: none; widows: 2; word-spacing: 0px; -webkit-text-stroke-width: 0px; white-space: normal; background-color: rgb(251, 251, 251); text-decoration-thickness: initial; text-decoration-style: initial; text-decoration-color: initial; display: inline !important; float: none;&quot;&gt;Run Specific Python Template&lt;/span&gt;&#xa;&#xa;" style="whiteSpace=wrap;html=1;" vertex="1" parent="oOW6s0dnsx2gBzozzX6u-6">
          <mxGeometry x="480" y="40" width="120" height="60" as="geometry" />
        </mxCell>
        <mxCell id="oOW6s0dnsx2gBzozzX6u-16" value="" style="edgeStyle=orthogonalEdgeStyle;rounded=0;orthogonalLoop=1;jettySize=auto;html=1;" edge="1" parent="oOW6s0dnsx2gBzozzX6u-6" source="oOW6s0dnsx2gBzozzX6u-17" target="oOW6s0dnsx2gBzozzX6u-18">
          <mxGeometry relative="1" as="geometry" />
        </mxCell>
        <mxCell id="oOW6s0dnsx2gBzozzX6u-17" value="Run Scrape" style="whiteSpace=wrap;html=1;" vertex="1" parent="oOW6s0dnsx2gBzozzX6u-6">
          <mxGeometry x="680" y="40" width="120" height="60" as="geometry" />
        </mxCell>
        <mxCell id="oOW6s0dnsx2gBzozzX6u-18" value="&lt;span style=&quot;color: rgb(0, 0, 0); font-family: Helvetica; font-size: 12px; font-style: normal; font-variant-ligatures: normal; font-variant-caps: normal; font-weight: 400; letter-spacing: normal; orphans: 2; text-align: center; text-indent: 0px; text-transform: none; widows: 2; word-spacing: 0px; -webkit-text-stroke-width: 0px; white-space: normal; background-color: rgb(251, 251, 251); text-decoration-thickness: initial; text-decoration-style: initial; text-decoration-color: initial; float: none; display: inline !important;&quot;&gt;Save Data to MySQL&lt;/span&gt;" style="whiteSpace=wrap;html=1;" vertex="1" parent="oOW6s0dnsx2gBzozzX6u-6">
          <mxGeometry x="880" y="40" width="120" height="60" as="geometry" />
        </mxCell>
        <mxCell id="oOW6s0dnsx2gBzozzX6u-19" value="" style="edgeStyle=orthogonalEdgeStyle;rounded=0;orthogonalLoop=1;jettySize=auto;html=1;exitX=1;exitY=0.5;exitDx=0;exitDy=0;" edge="1" parent="oOW6s0dnsx2gBzozzX6u-6" source="oOW6s0dnsx2gBzozzX6u-18" target="oOW6s0dnsx2gBzozzX6u-24">
          <mxGeometry relative="1" as="geometry">
            <mxPoint x="1200" y="70" as="sourcePoint" />
          </mxGeometry>
        </mxCell>
        <mxCell id="oOW6s0dnsx2gBzozzX6u-20" value="" style="edgeStyle=orthogonalEdgeStyle;rounded=0;orthogonalLoop=1;jettySize=auto;html=1;" edge="1" parent="oOW6s0dnsx2gBzozzX6u-6" source="oOW6s0dnsx2gBzozzX6u-24" target="oOW6s0dnsx2gBzozzX6u-26">
          <mxGeometry relative="1" as="geometry" />
        </mxCell>
        <mxCell id="oOW6s0dnsx2gBzozzX6u-21" value="Yes" style="edgeLabel;html=1;align=center;verticalAlign=middle;resizable=0;points=[];" vertex="1" connectable="0" parent="oOW6s0dnsx2gBzozzX6u-20">
          <mxGeometry x="-0.1939" relative="1" as="geometry">
            <mxPoint as="offset" />
          </mxGeometry>
        </mxCell>
        <mxCell id="oOW6s0dnsx2gBzozzX6u-22" style="edgeStyle=orthogonalEdgeStyle;rounded=0;orthogonalLoop=1;jettySize=auto;html=1;entryX=0.5;entryY=1;entryDx=0;entryDy=0;" edge="1" parent="oOW6s0dnsx2gBzozzX6u-6" source="oOW6s0dnsx2gBzozzX6u-24" target="oOW6s0dnsx2gBzozzX6u-13">
          <mxGeometry relative="1" as="geometry">
            <Array as="points">
              <mxPoint x="1110" y="130" />
              <mxPoint x="380" y="130" />
            </Array>
          </mxGeometry>
        </mxCell>
        <mxCell id="oOW6s0dnsx2gBzozzX6u-23" value="No" style="edgeLabel;html=1;align=center;verticalAlign=middle;resizable=0;points=[];" vertex="1" connectable="0" parent="oOW6s0dnsx2gBzozzX6u-22">
          <mxGeometry x="-0.9815" y="-1" relative="1" as="geometry">
            <mxPoint as="offset" />
          </mxGeometry>
        </mxCell>
        <mxCell id="oOW6s0dnsx2gBzozzX6u-24" value="&lt;span style=&quot;color: rgb(0, 0, 0); font-family: Helvetica; font-size: 12px; font-style: normal; font-variant-ligatures: normal; font-variant-caps: normal; font-weight: 400; letter-spacing: normal; orphans: 2; text-align: center; text-indent: 0px; text-transform: none; widows: 2; word-spacing: 0px; -webkit-text-stroke-width: 0px; white-space: normal; background-color: rgb(251, 251, 251); text-decoration-thickness: initial; text-decoration-style: initial; text-decoration-color: initial; float: none; display: inline !important;&quot;&gt;Error Check Test Success&lt;/span&gt;" style="rhombus;whiteSpace=wrap;html=1;" vertex="1" parent="oOW6s0dnsx2gBzozzX6u-6">
          <mxGeometry x="1070" y="30" width="80" height="80" as="geometry" />
        </mxCell>
        <mxCell id="oOW6s0dnsx2gBzozzX6u-25" value="" style="edgeStyle=orthogonalEdgeStyle;rounded=0;orthogonalLoop=1;jettySize=auto;html=1;" edge="1" parent="oOW6s0dnsx2gBzozzX6u-6" source="oOW6s0dnsx2gBzozzX6u-26" target="oOW6s0dnsx2gBzozzX6u-29">
          <mxGeometry relative="1" as="geometry" />
        </mxCell>
        <mxCell id="oOW6s0dnsx2gBzozzX6u-26" value="Save to JSON Scraper DB" style="whiteSpace=wrap;html=1;" vertex="1" parent="oOW6s0dnsx2gBzozzX6u-6">
          <mxGeometry x="1210" y="40" width="120" height="60" as="geometry" />
        </mxCell>
        <mxCell id="oOW6s0dnsx2gBzozzX6u-27" style="edgeStyle=orthogonalEdgeStyle;rounded=0;orthogonalLoop=1;jettySize=auto;html=1;entryX=0.5;entryY=1;entryDx=0;entryDy=0;" edge="1" parent="oOW6s0dnsx2gBzozzX6u-6" source="oOW6s0dnsx2gBzozzX6u-29" target="oOW6s0dnsx2gBzozzX6u-13">
          <mxGeometry relative="1" as="geometry">
            <Array as="points">
              <mxPoint x="1470" y="153" />
              <mxPoint x="380" y="153" />
            </Array>
          </mxGeometry>
        </mxCell>
        <mxCell id="oOW6s0dnsx2gBzozzX6u-28" value="No" style="edgeLabel;html=1;align=center;verticalAlign=middle;resizable=0;points=[];" vertex="1" connectable="0" parent="oOW6s0dnsx2gBzozzX6u-27">
          <mxGeometry x="-0.9712" relative="1" as="geometry">
            <mxPoint as="offset" />
          </mxGeometry>
        </mxCell>
        <mxCell id="oOW6s0dnsx2gBzozzX6u-29" value="Save Test Success" style="rhombus;whiteSpace=wrap;html=1;" vertex="1" parent="oOW6s0dnsx2gBzozzX6u-6">
          <mxGeometry x="1430" y="30" width="80" height="80" as="geometry" />
        </mxCell>
        <mxCell id="oOW6s0dnsx2gBzozzX6u-30" value="Content React Layer" style="swimlane;html=1;startSize=20;horizontal=0;fillColor=#ffe6cc;strokeColor=#d79b00;" vertex="1" parent="oOW6s0dnsx2gBzozzX6u-1">
          <mxGeometry x="20" y="200" width="4470" height="190" as="geometry" />
        </mxCell>
        <mxCell id="oOW6s0dnsx2gBzozzX6u-31" value="" style="edgeStyle=orthogonalEdgeStyle;rounded=0;orthogonalLoop=1;jettySize=auto;html=1;endArrow=classic;endFill=1;" edge="1" parent="oOW6s0dnsx2gBzozzX6u-30">
          <mxGeometry relative="1" as="geometry">
            <mxPoint x="200" y="60" as="sourcePoint" />
          </mxGeometry>
        </mxCell>
        <mxCell id="oOW6s0dnsx2gBzozzX6u-32" value="" style="edgeStyle=orthogonalEdgeStyle;rounded=0;orthogonalLoop=1;jettySize=auto;html=1;" edge="1" parent="oOW6s0dnsx2gBzozzX6u-30" source="oOW6s0dnsx2gBzozzX6u-33" target="oOW6s0dnsx2gBzozzX6u-38">
          <mxGeometry relative="1" as="geometry" />
        </mxCell>
        <mxCell id="oOW6s0dnsx2gBzozzX6u-33" value="Save JSON to Content Dev DB" style="whiteSpace=wrap;html=1;" vertex="1" parent="oOW6s0dnsx2gBzozzX6u-30">
          <mxGeometry x="1550" y="42" width="120" height="60" as="geometry" />
        </mxCell>
        <mxCell id="oOW6s0dnsx2gBzozzX6u-34" style="edgeStyle=orthogonalEdgeStyle;rounded=0;orthogonalLoop=1;jettySize=auto;html=1;entryX=0;entryY=0.5;entryDx=0;entryDy=0;" edge="1" parent="oOW6s0dnsx2gBzozzX6u-30" source="oOW6s0dnsx2gBzozzX6u-38" target="oOW6s0dnsx2gBzozzX6u-51">
          <mxGeometry relative="1" as="geometry" />
        </mxCell>
        <mxCell id="oOW6s0dnsx2gBzozzX6u-35" value="New" style="edgeLabel;html=1;align=center;verticalAlign=middle;resizable=0;points=[];" vertex="1" connectable="0" parent="oOW6s0dnsx2gBzozzX6u-34">
          <mxGeometry x="-0.093" relative="1" as="geometry">
            <mxPoint as="offset" />
          </mxGeometry>
        </mxCell>
        <mxCell id="oOW6s0dnsx2gBzozzX6u-36" style="edgeStyle=orthogonalEdgeStyle;rounded=0;orthogonalLoop=1;jettySize=auto;html=1;entryX=0.5;entryY=1;entryDx=0;entryDy=0;" edge="1" parent="oOW6s0dnsx2gBzozzX6u-30" source="oOW6s0dnsx2gBzozzX6u-38" target="oOW6s0dnsx2gBzozzX6u-53">
          <mxGeometry relative="1" as="geometry">
            <Array as="points">
              <mxPoint x="1810" y="122" />
              <mxPoint x="2171" y="122" />
            </Array>
          </mxGeometry>
        </mxCell>
        <mxCell id="oOW6s0dnsx2gBzozzX6u-37" value="Existing" style="edgeLabel;html=1;align=center;verticalAlign=middle;resizable=0;points=[];" vertex="1" connectable="0" parent="oOW6s0dnsx2gBzozzX6u-36">
          <mxGeometry x="-0.0633" relative="1" as="geometry">
            <mxPoint as="offset" />
          </mxGeometry>
        </mxCell>
        <mxCell id="oOW6s0dnsx2gBzozzX6u-38" value="&lt;span style=&quot;color: rgb(0, 0, 0); font-family: Helvetica; font-size: 12px; font-style: normal; font-variant-ligatures: normal; font-variant-caps: normal; font-weight: 400; letter-spacing: normal; orphans: 2; text-align: center; text-indent: 0px; text-transform: none; widows: 2; word-spacing: 0px; -webkit-text-stroke-width: 0px; white-space: normal; background-color: rgb(251, 251, 251); text-decoration-thickness: initial; text-decoration-style: initial; text-decoration-color: initial; float: none; display: inline !important;&quot;&gt;Choose Content Template&lt;/span&gt;" style="rhombus;whiteSpace=wrap;html=1;" vertex="1" parent="oOW6s0dnsx2gBzozzX6u-30">
          <mxGeometry x="1770" y="32" width="80" height="80" as="geometry" />
        </mxCell>
        <mxCell id="oOW6s0dnsx2gBzozzX6u-39" value="" style="edgeStyle=orthogonalEdgeStyle;rounded=0;orthogonalLoop=1;jettySize=auto;html=1;" edge="1" parent="oOW6s0dnsx2gBzozzX6u-30" source="oOW6s0dnsx2gBzozzX6u-40" target="oOW6s0dnsx2gBzozzX6u-41">
          <mxGeometry relative="1" as="geometry" />
        </mxCell>
        <mxCell id="oOW6s0dnsx2gBzozzX6u-40" value="Connect to JSON Data Source" style="whiteSpace=wrap;html=1;" vertex="1" parent="oOW6s0dnsx2gBzozzX6u-30">
          <mxGeometry x="2560" y="42" width="120" height="60" as="geometry" />
        </mxCell>
        <mxCell id="oOW6s0dnsx2gBzozzX6u-41" value="&lt;span style=&quot;color: rgb(0, 0, 0); font-family: Helvetica; font-size: 12px; font-style: normal; font-variant-ligatures: normal; font-variant-caps: normal; font-weight: 400; letter-spacing: normal; orphans: 2; text-align: center; text-indent: 0px; text-transform: none; widows: 2; word-spacing: 0px; -webkit-text-stroke-width: 0px; white-space: normal; background-color: rgb(251, 251, 251); text-decoration-thickness: initial; text-decoration-style: initial; text-decoration-color: initial; float: none; display: inline !important;&quot;&gt;Connect, Configure UI Components&lt;/span&gt;" style="whiteSpace=wrap;html=1;" vertex="1" parent="oOW6s0dnsx2gBzozzX6u-30">
          <mxGeometry x="2760" y="42" width="120" height="60" as="geometry" />
        </mxCell>
        <mxCell id="oOW6s0dnsx2gBzozzX6u-42" value="" style="edgeStyle=orthogonalEdgeStyle;rounded=0;orthogonalLoop=1;jettySize=auto;html=1;" edge="1" parent="oOW6s0dnsx2gBzozzX6u-30" source="oOW6s0dnsx2gBzozzX6u-43" target="oOW6s0dnsx2gBzozzX6u-46">
          <mxGeometry relative="1" as="geometry" />
        </mxCell>
        <mxCell id="oOW6s0dnsx2gBzozzX6u-43" value="Add Content Text" style="whiteSpace=wrap;html=1;" vertex="1" parent="oOW6s0dnsx2gBzozzX6u-30">
          <mxGeometry x="2960" y="42" width="120" height="60" as="geometry" />
        </mxCell>
        <mxCell id="oOW6s0dnsx2gBzozzX6u-44" value="" style="edgeStyle=orthogonalEdgeStyle;rounded=0;orthogonalLoop=1;jettySize=auto;html=1;" edge="1" parent="oOW6s0dnsx2gBzozzX6u-30" source="oOW6s0dnsx2gBzozzX6u-46" target="oOW6s0dnsx2gBzozzX6u-55">
          <mxGeometry relative="1" as="geometry" />
        </mxCell>
        <mxCell id="oOW6s0dnsx2gBzozzX6u-45" value="Yes" style="edgeLabel;html=1;align=center;verticalAlign=middle;resizable=0;points=[];" vertex="1" connectable="0" parent="oOW6s0dnsx2gBzozzX6u-44">
          <mxGeometry x="0.6583" y="-1" relative="1" as="geometry">
            <mxPoint as="offset" />
          </mxGeometry>
        </mxCell>
        <mxCell id="oOW6s0dnsx2gBzozzX6u-46" value="Configure for SEO" style="whiteSpace=wrap;html=1;" vertex="1" parent="oOW6s0dnsx2gBzozzX6u-30">
          <mxGeometry x="3160" y="42" width="120" height="60" as="geometry" />
        </mxCell>
        <mxCell id="oOW6s0dnsx2gBzozzX6u-47" value="" style="edgeStyle=orthogonalEdgeStyle;rounded=0;orthogonalLoop=1;jettySize=auto;html=1;" edge="1" parent="oOW6s0dnsx2gBzozzX6u-30" source="oOW6s0dnsx2gBzozzX6u-41" target="oOW6s0dnsx2gBzozzX6u-43">
          <mxGeometry relative="1" as="geometry" />
        </mxCell>
        <mxCell id="oOW6s0dnsx2gBzozzX6u-48" style="edgeStyle=orthogonalEdgeStyle;rounded=0;orthogonalLoop=1;jettySize=auto;html=1;entryX=0;entryY=0.5;entryDx=0;entryDy=0;" edge="1" parent="oOW6s0dnsx2gBzozzX6u-30" source="oOW6s0dnsx2gBzozzX6u-49" target="oOW6s0dnsx2gBzozzX6u-40">
          <mxGeometry relative="1" as="geometry" />
        </mxCell>
        <mxCell id="oOW6s0dnsx2gBzozzX6u-49" value="Edit Content Template" style="whiteSpace=wrap;html=1;" vertex="1" parent="oOW6s0dnsx2gBzozzX6u-30">
          <mxGeometry x="2360" y="42" width="120" height="60" as="geometry" />
        </mxCell>
        <mxCell id="oOW6s0dnsx2gBzozzX6u-50" style="edgeStyle=orthogonalEdgeStyle;rounded=0;orthogonalLoop=1;jettySize=auto;html=1;entryX=0.5;entryY=0;entryDx=0;entryDy=0;" edge="1" parent="oOW6s0dnsx2gBzozzX6u-30" source="oOW6s0dnsx2gBzozzX6u-51" target="oOW6s0dnsx2gBzozzX6u-49">
          <mxGeometry relative="1" as="geometry">
            <Array as="points">
              <mxPoint x="1970" y="22" />
              <mxPoint x="2420" y="22" />
            </Array>
          </mxGeometry>
        </mxCell>
        <mxCell id="oOW6s0dnsx2gBzozzX6u-51" value="Pick from Library" style="whiteSpace=wrap;html=1;" vertex="1" parent="oOW6s0dnsx2gBzozzX6u-30">
          <mxGeometry x="1910" y="42" width="120" height="60" as="geometry" />
        </mxCell>
        <mxCell id="oOW6s0dnsx2gBzozzX6u-52" style="edgeStyle=orthogonalEdgeStyle;rounded=0;orthogonalLoop=1;jettySize=auto;html=1;entryX=0;entryY=0.5;entryDx=0;entryDy=0;" edge="1" parent="oOW6s0dnsx2gBzozzX6u-30" source="oOW6s0dnsx2gBzozzX6u-53" target="oOW6s0dnsx2gBzozzX6u-49">
          <mxGeometry relative="1" as="geometry" />
        </mxCell>
        <mxCell id="oOW6s0dnsx2gBzozzX6u-53" value="Copy from Existing&amp;nbsp; Production Page" style="whiteSpace=wrap;html=1;" vertex="1" parent="oOW6s0dnsx2gBzozzX6u-30">
          <mxGeometry x="2111" y="42" width="120" height="60" as="geometry" />
        </mxCell>
        <mxCell id="oOW6s0dnsx2gBzozzX6u-54" value="" style="edgeStyle=orthogonalEdgeStyle;rounded=0;orthogonalLoop=1;jettySize=auto;html=1;" edge="1" parent="oOW6s0dnsx2gBzozzX6u-30" source="oOW6s0dnsx2gBzozzX6u-55" target="oOW6s0dnsx2gBzozzX6u-56">
          <mxGeometry relative="1" as="geometry" />
        </mxCell>
        <mxCell id="oOW6s0dnsx2gBzozzX6u-55" value="&lt;span style=&quot;color: rgb(0, 0, 0); font-family: Helvetica; font-size: 12px; font-style: normal; font-variant-ligatures: normal; font-variant-caps: normal; font-weight: 400; letter-spacing: normal; orphans: 2; text-align: center; text-indent: 0px; text-transform: none; widows: 2; word-spacing: 0px; -webkit-text-stroke-width: 0px; white-space: normal; background-color: rgb(251, 251, 251); text-decoration-thickness: initial; text-decoration-style: initial; text-decoration-color: initial; float: none; display: inline !important;&quot;&gt;Save&lt;/span&gt;" style="whiteSpace=wrap;html=1;" vertex="1" parent="oOW6s0dnsx2gBzozzX6u-30">
          <mxGeometry x="3530" y="42" width="120" height="60" as="geometry" />
        </mxCell>
        <mxCell id="oOW6s0dnsx2gBzozzX6u-56" value="UAT Test" style="whiteSpace=wrap;html=1;" vertex="1" parent="oOW6s0dnsx2gBzozzX6u-30">
          <mxGeometry x="3730" y="42" width="120" height="60" as="geometry" />
        </mxCell>
        <mxCell id="oOW6s0dnsx2gBzozzX6u-57" style="edgeStyle=orthogonalEdgeStyle;rounded=0;orthogonalLoop=1;jettySize=auto;html=1;entryX=0.5;entryY=1;entryDx=0;entryDy=0;" edge="1" parent="oOW6s0dnsx2gBzozzX6u-30" source="oOW6s0dnsx2gBzozzX6u-59" target="oOW6s0dnsx2gBzozzX6u-49">
          <mxGeometry relative="1" as="geometry">
            <Array as="points">
              <mxPoint x="3410" y="132" />
              <mxPoint x="2420" y="132" />
            </Array>
          </mxGeometry>
        </mxCell>
        <mxCell id="oOW6s0dnsx2gBzozzX6u-58" value="No" style="edgeLabel;html=1;align=center;verticalAlign=middle;resizable=0;points=[];" vertex="1" connectable="0" parent="oOW6s0dnsx2gBzozzX6u-57">
          <mxGeometry x="-0.985" y="-2" relative="1" as="geometry">
            <mxPoint as="offset" />
          </mxGeometry>
        </mxCell>
        <mxCell id="oOW6s0dnsx2gBzozzX6u-59" value="Test Success&amp;nbsp;&amp;nbsp;" style="rhombus;whiteSpace=wrap;html=1;" vertex="1" parent="oOW6s0dnsx2gBzozzX6u-30">
          <mxGeometry x="3370" y="32" width="80" height="80" as="geometry" />
        </mxCell>
        <mxCell id="oOW6s0dnsx2gBzozzX6u-60" style="edgeStyle=orthogonalEdgeStyle;rounded=0;orthogonalLoop=1;jettySize=auto;html=1;entryX=0.5;entryY=1;entryDx=0;entryDy=0;" edge="1" parent="oOW6s0dnsx2gBzozzX6u-30" source="oOW6s0dnsx2gBzozzX6u-62" target="oOW6s0dnsx2gBzozzX6u-49">
          <mxGeometry relative="1" as="geometry">
            <Array as="points">
              <mxPoint x="3990" y="150" />
              <mxPoint x="2420" y="150" />
            </Array>
          </mxGeometry>
        </mxCell>
        <mxCell id="oOW6s0dnsx2gBzozzX6u-61" value="No" style="edgeLabel;html=1;align=center;verticalAlign=middle;resizable=0;points=[];" vertex="1" connectable="0" parent="oOW6s0dnsx2gBzozzX6u-60">
          <mxGeometry x="-0.9762" y="-1" relative="1" as="geometry">
            <mxPoint as="offset" />
          </mxGeometry>
        </mxCell>
        <mxCell id="oOW6s0dnsx2gBzozzX6u-62" value="Test Success" style="rhombus;whiteSpace=wrap;html=1;" vertex="1" parent="oOW6s0dnsx2gBzozzX6u-30">
          <mxGeometry x="3950" y="32" width="80" height="80" as="geometry" />
        </mxCell>
        <mxCell id="oOW6s0dnsx2gBzozzX6u-63" value="" style="edgeStyle=orthogonalEdgeStyle;rounded=0;orthogonalLoop=1;jettySize=auto;html=1;" edge="1" parent="oOW6s0dnsx2gBzozzX6u-30" source="oOW6s0dnsx2gBzozzX6u-56" target="oOW6s0dnsx2gBzozzX6u-62">
          <mxGeometry relative="1" as="geometry" />
        </mxCell>
        <mxCell id="oOW6s0dnsx2gBzozzX6u-64" value="Web Server React Layer" style="swimlane;html=1;startSize=20;horizontal=0;fillColor=#dae8fc;strokeColor=#6c8ebf;" vertex="1" parent="oOW6s0dnsx2gBzozzX6u-1">
          <mxGeometry x="20" y="390" width="4470" height="210" as="geometry" />
        </mxCell>
        <mxCell id="oOW6s0dnsx2gBzozzX6u-65" value="TBD ...&amp;nbsp;&lt;div&gt;Assemble React&amp;nbsp; Production Components&amp;nbsp;&lt;/div&gt;" style="whiteSpace=wrap;html=1;dashed=1;dashPattern=8 8;" vertex="1" parent="oOW6s0dnsx2gBzozzX6u-64">
          <mxGeometry x="4050" y="45" width="120" height="60" as="geometry" />
        </mxCell>
      </root>
    </mxGraphModel>
  </diagram>
</mxfile>
